<?xml version="1.0" encoding="UTF-8"?>
<svg viewBox="0 0 750 500" xmlns="http://www.w3.org/2000/svg" xmlns:xlink="http://www.w3.org/1999/xlink">
 <defs>
  <clipPath id="t">
   <path d="m180.31 600.32s-36.871-45.457 32.325-47.982c0 0 62.124-54.548 102.53 28.284 0 0 38.891-17.172 42.426-14.647-24.645-54.095 19.121-66.4 41.416-47.982 57.056 80.758 0.78503 111.65-75.256 133.84-60.878 64.449-180.95 37.508-142.94-3.5355-23.024-26.543-11.636-37.203-0.50508-47.982z" fill="#ccc" fill-rule="evenodd"/>
  </clipPath>
  <clipPath id="v">
   <path d="m506.09 731.13h-254.56c-120.49 0-249.51-111.35-249.51-208.6s129.02-208.6 249.51-208.6h254.56c20.373 133.63 20.032 272.79 0 417.19z" fill="url(#a)" fill-rule="evenodd"/>
  </clipPath>
  <clipPath id="u">
   <path d="m506.09 731.13h-254.56c-120.49 0-249.51-111.35-249.51-208.6s129.02-208.6 249.51-208.6h254.56c20.373 133.63 20.032 272.79 0 417.19z" fill="url(#a)" fill-rule="evenodd"/>
  </clipPath>
  <clipPath id="w">
   <path d="m548.93 312.36l-20 26.429c23.816 105.24 18.574 229.86 2.1727 361.91l18.184 25.231 1.2474 2.1696 92.934-1.0101c39.184 0 35.215-413.15 1.0101-413.15l-95.549-1.5785z" fill="url(#s)" fill-rule="evenodd"/>
  </clipPath>
  <filter id="aa" x="-.12614" y="-.16355" width="1.2523" height="1.3271">
   <feGaussianBlur stdDeviation="15.562871"/>
  </filter>
  <filter id="x" x="-.052983" y="-.22081" width="1.106" height="1.4416">
   <feGaussianBlur stdDeviation="13.809113"/>
  </filter>
  <filter id="z" x="-.099336" y="-.14382" width="1.1987" height="1.2876">
   <feGaussianBlur stdDeviation="10.591311"/>
  </filter>
  <filter id="y" x="-.27598" y="-.3181" width="1.552" height="1.6362">
   <feGaussianBlur stdDeviation="7.327151"/>
  </filter>
  <filter id="ab" x="-.086495" y="-.27633" width="1.173" height="1.5527">
   <feGaussianBlur stdDeviation="17.903862"/>
  </filter>
  <filter id="ac" x="-.17389" y="-.64783" width="1.3478" height="2.2957">
   <feGaussianBlur stdDeviation="9.405471"/>
  </filter>
  <linearGradient id="a" x1=".69092" x2=".68499" y1=".016949" y2=".98547" xlink:href="#r"/>
  <linearGradient id="ae" x1=".42905" x2=".52396" y1="-.25257" y2=".86941" xlink:href="#r"/>
  <linearGradient id="r">
   <stop stop-color="#333" offset="0"/>
   <stop stop-color="#1a1a1a" offset=".094976"/>
   <stop stop-color="#1a1a1a" offset=".29998"/>
   <stop stop-color="#999" offset=".37505"/>
   <stop stop-color="#1a1a1a" offset=".60679"/>
   <stop offset=".69532"/>
   <stop stop-color="#1a1a1a" offset=".84993"/>
   <stop stop-color="#1a1a1a" offset=".92245"/>
   <stop offset="1"/>
  </linearGradient>
  <linearGradient id="s" x1=".32915" x2=".32915" y2="1.0008" xlink:href="#q"/>
  <linearGradient id="q">
   <stop stop-color="#333" offset="0"/>
   <stop stop-color="#1a1a1a" offset=".094976"/>
   <stop stop-color="#1a1a1a" offset=".29998"/>
   <stop stop-color="#999" offset=".37505"/>
   <stop stop-color="#1a1a1a" offset=".61745"/>
   <stop offset=".76251"/>
   <stop stop-color="#1a1a1a" offset=".84993"/>
   <stop stop-color="#1a1a1a" offset=".92245"/>
   <stop offset="1"/>
  </linearGradient>
  <linearGradient id="ad" x1=".5" x2=".59375" y1="-.19553" y2="1.2821" xlink:href="#q"/>
 </defs>
 <g fill-rule="evenodd">
  <path d="m526.29 76.555h63.64l1.0102 361.63h-54.548l-10.102-361.63z" fill="url(#ad)"/>
  <path d="m527.46 117.58l1.5 54.281h61.219l-0.125-54.281h-62.594z" fill="#fff" filter="url(#y)" stroke="#000"/>
  <path d="m542.45 468.49h-254.56c-120.49 0-249.51-111.35-249.51-208.6s129.02-208.6 249.51-208.6h254.56c20.373 133.63 20.032 272.79 0 417.19z" fill="url(#a)"/>
  <path d="m585.29 49.722l-20 26.429c23.816 105.24 18.574 229.86 2.1727 361.91l18.184 25.231 1.2474 2.1696 92.934-1.0102c39.184 0 35.215-413.15 1.0102-413.15l-95.549-1.5785z" fill="url(#s)"/>
  <path d="m661.77 431.61c-26.223 0.022583-58.734 0.68805-93.719 1.5625-0.19898 1.6276-0.3913 3.2452-0.59375 4.875l18.188 25.25 1.25 2.1562 92.938-1c6.728 0 12.189-12.166 16.438-32.344-9.6706-0.35095-21.251-0.51141-34.5-0.5z" clip-path="url(#w)" fill="#ccc" filter="url(#ac)" opacity=".613" stroke="#000"/>
  <path d="m585.3 49.735l-20 26.406c23.816 105.24 18.558 229.85 2.1562 361.91l18.188 25.25 1.25 2.1562h0.40625c30.944-162.56 31.93-302.49-1.75-415.72h-0.25z" fill="url(#ae)"/>
  <path d="m548.8 98.86c-31.029 0.2937-204.35 1.9375-267.97 1.9375-69.7 0-133.34 48.5-133.34 48.5-93.944 38.386-60.625 96.969-60.625 96.969 35.355 15.152 128.31-76.781 128.31-76.781l340.19 5.9375c-1.4644-25.716-3.6533-51.231-6.5625-76.562zm21.125 0.0312c0.44678 2.4411 0.8927 4.8785 1.3125 7.3438 0.00177 0.010147-0.001709 0.021111 0 0.03125 0.57696 3.389 1.132 6.7946 1.6562 10.219 0.52771 3.4445 1.0245 6.8958 1.5 10.375 0.474 3.4689 0.92053 6.9348 1.3438 10.438 0.001282 0.0103-0.001221 0.020966 0 0.03125 0.8468 7.0055 1.5997 14.051 2.25 21.188 0.3252 3.5682 0.62854 7.1502 0.90625 10.75 0.16797 2.1789 0.32153 4.3729 0.46875 6.5625l126.28 2.2188c-1.5604-29.407-3.9103-56.249-7.0625-77.594l-128.66-1.5625z" fill="#fff" filter="url(#x)" opacity=".937" stroke="#000"/>
  <path d="m430.58 252.05c0.4678 6.5673 1.9097 13.065 4.0625 18.688 11.281 23.561 6.7441 58.38-24.562 61.406-19.516 4.8606-43.251 0.42969-54.719-15.812-1.6121 0.69635-3.8438 1.6562-3.8438 1.6562-17.92-36.737-40.1-46.44-59.25-45.875 2.6137 9.8495 16.01 17.338 25.688 21.906 8.3323 23.144 12.251 49.094 11.938 73.75-2.0911 29.877-35.308 37.331-58.438 45.531-25.572 10.19-30.848-10.52-40.781-28-26.155-11.568-9.821-28.232 6.0312-38.188 6.7245-20.493-8.5947-34.964-23.406-47.656-16.198 14.071 3.375 38.219 3.375 38.219-11.131 10.779-22.524 21.457 0.5 48-38.015 41.044 82.059 67.98 142.94 3.5312 76.041-22.194 132.31-53.086 75.25-133.84-1.5071-1.2451-3.1056-2.3517-4.7812-3.3125z" clip-path="url(#t)" fill="#808080" filter="url(#z)"/>
  <path d="m267.69 49.278c-120.49 0-249.5 111.34-249.5 208.59 0 6.5403 0.59351 13.152 1.7188 19.781 51.475-59.102 163.82-174.94 294.38-228.38h-46.594z" clip-path="url(#u)" fill="#666" filter="url(#aa)"/>
  <path d="m50.116 312.99c34.406 80.597 138.96 155.5 237.78 155.5h254.56c1.6137-11.633 3.0799-23.217 4.4375-34.781-85.368 2.2683-181.49 5.4657-241.84 4.5-126.27-2.0203-223.22-108.1-241.41-120.22-4.0215-2.681-8.7059-4.2205-13.531-5z" clip-path="url(#v)" fill="#ccc" filter="url(#ab)" opacity=".685"/>
 </g>
</svg>
