<?xml version="1.0" encoding="utf-8"?>
<!-- Generator: Adobe Illustrator 17.0.0, SVG Export Plug-In . SVG Version: 6.00 Build 0)  -->
<!DOCTYPE svg PUBLIC "-//W3C//DTD SVG 1.1//EN" "http://www.w3.org/Graphics/SVG/1.1/DTD/svg11.dtd">
<svg version="1.1" id="Layer_1" xmlns="http://www.w3.org/2000/svg" xmlns:xlink="http://www.w3.org/1999/xlink" x="0px" y="0px"
	 width="1510.4px" height="998.07px" viewBox="0 0 1510.4 998.07" enable-background="new 0 0 1510.4 998.07" xml:space="preserve">
<ellipse fill="#EAB86A" cx="1039.652" cy="642.577" rx="25.618" ry="14.322"/>
<ellipse fill="#EAB86A" cx="493.734" cy="830.66" rx="17.405" ry="9.732"/>
<ellipse fill="#EAB86A" cx="564.985" cy="618.534" rx="17.405" ry="9.732"/>
<polygon fill="#431B10" points="640.122,70.987 1153.87,126.807 1128.09,553.799 605.767,453.187 "/>
<path fill="#703A20" stroke="#331C15" stroke-miterlimit="10" d="M636.595,73.153l-30.828,380.034
	c50.788,0.713,125.097,27.147,175.768,30.68c9.54,0.68,36.557-142.194,38.293-152.139c5.802-33.107,2.417-64.689-5.315-97.094
	c-6.567-27.543-15.196-64.277-32.667-86.324c-17.09-21.596-42.948-39.604-67.992-49.907l-51.881-21.349l-25.379-3.908V73.153z"/>
<path fill="#703A20" d="M1122.54,560.601l65.36-14.152l59.399-21.982c23.243-8.602,59.553-25.808,74.116-46.536
	c33.048-47.032,63.699-103.458,60.038-162.739c-5.564-90.15-64.662-188.119-155.121-213.791l-54.875-15.579L604.521,22.995
	l-19.353,432.882l40.381-2.426l14.456-375.415l514.016,48.772l-31.481,433.777L1122.54,560.601z"/>
<path fill="#431B10" d="M1122.54,560.494l65.213-14.265l-0.032,0.009l39.019-14.533c12.974-4.932,26.141-9.377,38.732-15.18
	c12.593-5.763,24.899-12.283,36.141-20.366c5.595-4.055,10.929-8.516,15.502-13.681c2.315-2.556,4.239-5.408,6.219-8.267
	c1.973-2.852,3.921-5.718,5.844-8.604c15.349-23.064,29.133-47.343,38.82-73.327c9.685-25.883,14.952-53.752,12.428-81.379
	c-2.272-27.602-9.291-54.755-20.113-80.226c-10.851-25.459-25.57-49.336-43.992-69.997c-18.388-20.633-40.662-37.989-65.818-49.509
	c-6.287-2.868-12.734-5.382-19.317-7.48c-6.581-2.055-13.319-3.845-19.974-5.781l-40.044-11.404l0.115,0.021l-566.9-63.224
	l0.346-0.297l-18.986,432.9l-0.718-0.707l40.377-2.469l-0.675,0.691l14.327-375.415l0.034-0.895l0.893,0.084l514.016,48.922
	l0.68,0.064l-0.05,0.68l-32.079,433.634L1122.54,560.494z M1122.343,560.72l30.884-433.956l0.63,0.745L639.823,78.887l0.927-0.811
	l-14.585,375.397l-0.025,0.652l-0.65,0.038l-40.383,2.385l-0.752,0.043l0.034-0.75l19.718-432.882l0.014-0.335l0.333,0.038
	l566.989,62.428l0.057,0.007l0.059,0.016l40.064,11.339c6.676,1.928,13.357,3.692,20.029,5.763
	c6.647,2.105,13.156,4.63,19.503,7.514c25.425,11.549,47.832,29.127,66.305,49.919c18.508,20.828,33.266,44.86,44.13,70.466
	c10.836,25.622,17.845,52.918,20.085,80.67c1.2,13.876,0.559,27.908-1.713,41.641c-2.25,13.745-6.048,27.203-10.921,40.227
	c-9.769,26.08-23.635,50.401-39.049,73.479c-1.93,2.886-3.888,5.756-5.868,8.609c-1.971,2.839-3.944,5.754-6.302,8.344
	c-4.646,5.231-10.036,9.719-15.675,13.792c-11.332,8.106-23.678,14.657-36.335,20.373c-12.662,5.77-25.86,10.163-38.845,15.036
	l-39.079,14.369l-0.016,0.005l-0.016,0.004l-65.509,14.039L1122.343,560.72z"/>
<path fill="#87462D" d="M1166.58,541.392c0.376,3.051,1.207,6.08,3.16,7.272c3.938,2.411,15.31-1.731,19.523-3.017
	c19.349-5.901,38.077-14.347,57.139-21.155c23.243-8.59,59.549-25.799,74.115-46.534c33.052-47.03,63.693-103.455,60.043-162.732
	c-4.096-66.481-35.642-133.76-86.857-176.873c-14.879-12.512-31.82-22.414-49.08-31.229c-8.11-4.146-15.099-7.077-23.74-9.114
	c-5.557-1.303-10.142-5.263-15.609-6.604c-4.057-0.976-7.827,0.312-11.828-0.725c-1.83,4.338-1.402,9.248-1.59,13.891
	c-0.863,21.417-4.218,42.984-5.267,64.597c-1.192,24.62-1.531,49.312-4.037,73.853c-3.747,36.813-8.57,74.481-9.986,111.423
	c-1.019,26.866,0.648,53.824-1.522,80.694c-1.828,22.546-1.448,45.845-2.948,68.66c-0.694,10.421-2.426,20.704-1.899,31.191
	C1166.276,536.517,1166.28,538.966,1166.58,541.392L1166.58,541.392z"/>
<path fill="#431B10" d="M1166.759,541.374c0.231,1.717,0.553,3.452,1.305,5.009c0.372,0.772,0.879,1.493,1.563,1.996
	c0.691,0.51,1.536,0.718,2.39,0.822c3.457,0.288,6.9-0.648,10.242-1.536c6.663-2.025,13.323-4.13,19.872-6.509
	c13.121-4.726,25.966-10.183,39.038-15.088c13.131-4.696,25.957-10.213,38.25-16.76c6.142-3.276,12.147-6.815,17.89-10.729
	c5.736-3.919,11.236-8.21,16.114-13.126c2.431-2.46,4.701-5.081,6.672-7.902c1.996-2.863,3.965-5.729,5.911-8.622
	c3.89-5.781,7.677-11.628,11.33-17.559c7.276-11.873,14.15-24,20.163-36.557c12.015-25.038,20.785-51.994,22.575-79.82
	c0.951-13.883-0.215-27.833-2.202-41.609c-2.059-13.772-5.22-27.385-9.454-40.66c-8.409-26.567-21.184-51.769-37.719-74.191
	c-16.545-22.374-36.872-42.159-60.702-56.62c-5.922-3.659-11.98-7.097-18.133-10.358c-6.167-3.242-12.331-6.511-18.778-9.039
	c-3.226-1.262-6.515-2.349-9.864-3.217c-1.669-0.453-3.393-0.759-5.106-1.434c-1.683-0.632-3.267-1.432-4.819-2.236
	c-3.09-1.592-6.16-3.283-9.436-3.724c-3.258-0.43-6.846,0.474-10.521-0.462l0.933-0.462c-1.736,4.166-1.334,8.923-1.518,13.67
	c-0.19,4.698-0.503,9.429-0.877,14.121c-0.748,9.402-1.769,18.765-2.66,28.132c-1.976,18.708-2.243,37.524-3.088,56.35
	c-0.399,9.411-0.868,18.826-1.599,28.229c-0.7,9.41-1.78,18.771-2.752,28.134c-1.998,18.726-4.08,37.436-5.707,56.182
	c-1.679,18.738-2.988,37.516-3.092,56.325c-0.184,18.812,0.249,37.672-0.943,56.498l-1.028,14.087
	c-0.301,4.692-0.528,9.392-0.718,14.093l-0.943,28.229c-0.372,9.408-0.768,18.828-1.803,28.195
	c-0.476,4.682-0.956,9.363-1.149,14.062c-0.097,2.351-0.111,4.701-0.02,7.05C1166.477,536.686,1166.475,539.042,1166.759,541.374
	L1166.759,541.374z M1166.58,541.396c-0.301-2.344-0.315-4.707-0.43-7.052c-0.108-2.354-0.108-4.714-0.025-7.068
	c0.161-4.712,0.614-9.404,1.06-14.089c0.974-9.361,1.309-18.773,1.622-28.178l0.766-28.234c0.159-4.707,0.358-9.413,0.63-14.118
	l0.936-14.089c1.038-18.783,0.457-37.613,0.489-56.452c-0.041-18.858,1.099-37.697,2.658-56.473
	c1.642-18.773,3.742-37.491,5.754-56.21c0.979-9.363,2.066-18.712,2.771-28.082c0.732-9.37,1.21-18.765,1.615-28.166
	c0.858-18.787,1.142-37.674,3.14-56.434c0.901-9.379,1.928-18.735,2.68-28.103c0.378-4.692,0.689-9.358,0.886-14.066
	c0.209-4.578-0.288-9.555,1.667-14.213l0.27-0.643l0.662,0.183c3.167,0.867,6.656,0.027,10.324,0.483
	c3.692,0.532,6.846,2.347,9.916,3.937c1.538,0.807,3.07,1.59,4.653,2.193c1.534,0.623,3.26,0.949,4.955,1.416
	c3.398,0.902,6.739,2.025,10,3.324c6.536,2.605,12.707,5.928,18.864,9.207c6.155,3.308,12.217,6.79,18.142,10.5
	c23.857,14.685,44.217,34.616,60.713,57.127c16.51,22.564,29.109,47.878,37.772,74.424c4.311,13.289,7.551,26.925,9.687,40.737
	c2.062,13.805,3.31,27.82,2.421,41.811c-1.674,28.019-10.38,55.181-22.337,80.393c-5.99,12.637-12.788,24.883-20.226,36.713
	c-3.704,5.924-7.541,11.762-11.479,17.53c-1.969,2.881-3.967,5.752-5.981,8.599c-2.044,2.886-4.375,5.541-6.864,8.022
	c-4.989,4.961-10.571,9.252-16.374,13.16c-5.811,3.905-11.869,7.419-18.058,10.666c-12.383,6.482-25.289,11.948-38.454,16.565
	c-13.083,4.818-25.966,10.201-39.13,14.854c-6.579,2.347-13.241,4.408-19.936,6.397c-3.362,0.87-6.816,1.797-10.351,1.482
	c-0.865-0.107-1.772-0.337-2.494-0.879c-0.721-0.539-1.242-1.294-1.62-2.087C1167.113,544.874,1166.804,543.122,1166.58,541.396
	L1166.58,541.396z"/>
<polygon fill="#AB512D" points="1155.302,549.753 1083.692,909.754 822.888,978.803 316.607,839.164 264.6,431.829 793.851,584.143 
	1106.428,527.679 "/>
<path fill="#431B10" d="M1155.481,549.699l-35.395,180.153l-35.583,180.027l-0.081,0.41l-0.406,0.109l-130.403,34.654
	l-130.473,34.394l-0.176,0.047l-0.172-0.048l-253.069-70.097l-126.551-34.99l-126.603-34.801l-0.265-0.072l-0.036-0.274
	l-52.417-407.299l-0.158-1.234l1.198,0.344l264.652,76.109l264.599,76.295l-0.329-0.018l312.595-55.965l0.07-0.013l0.061,0.029
	l48.949,22.229L1155.481,549.699z M1155.278,549.805l-48.927-21.931l0.131,0.016l-312.416,56.957l-0.167,0.03l-0.165-0.047
	l-264.67-76.019l-264.617-76.207l1.04-0.89l51.613,407.389l-0.301-0.346l126.542,35.023l126.594,34.833l253.213,69.549h-0.346
	l130.403-34.661l130.471-34.401l-0.485,0.517l35.952-179.956l36.136-179.848L1155.278,549.805z"/>
<polygon fill="#AB512D" points="825.968,975.205 1083.692,909.754 1151.9,559.975 814.976,610.585 "/>
<path fill="#431B10" d="M826.057,975.098l64.263-16.653l64.419-16.492l128.842-32.973l-0.593,0.627l34.435-174.827l17.222-87.412
	l16.9-87.475l0.476,0.496l-168.434,25.678l-168.478,25.37l0.732-0.877l2.779,91.158l2.544,91.163l2.521,91.165L826.057,975.098
	L826.057,975.098z M825.885,975.325l-3.124-91.258l-2.974-91.15l-2.95-91.152l-2.716-91.158l-0.023-0.766l0.755-0.113l168.5-25.242
	l168.545-24.935l0.591-0.088l-0.115,0.584l-17.192,87.42l-16.868,87.48l-33.746,174.961l-0.099,0.501l-0.494,0.123l-128.968,32.48
	l-64.485,16.234L825.885,975.325L825.885,975.325z"/>
<polygon fill="#703A20" points="978.157,937.681 1031.417,923.001 1095.687,581.386 1026.941,585.54 "/>
<path fill="#431B10" d="M978.264,937.556c17.7-4.991,35.37-10.097,53.097-14.995l-0.335,0.363l15.806-85.454
	c5.183-28.501,10.797-56.919,16.191-85.38l16.354-85.352c5.458-28.449,10.611-56.953,15.93-85.431l0.482,0.546l-68.731,4.408
	l0.661-0.612L1015.63,673.7l-12.167,88.039l-12.51,87.991l-6.282,43.992L978.264,937.556z M978.049,937.799l5.804-44.194
	l5.931-44.042l11.918-88.073l12.263-88.025l12.344-88.016l0.08-0.58l0.58-0.032l68.762-3.908l0.591-0.036l-0.111,0.58
	c-5.392,28.46-10.953,56.891-16.209,85.377l-15.783,85.457c-5.319,28.474-10.416,56.993-15.946,85.427l-16.332,85.355l-0.056,0.286
	l-0.277,0.077c-17.783,4.869-35.621,9.531-53.43,14.306L978.049,937.799L978.049,937.799z"/>
<polygon fill="#703A20" points="884.258,965.215 933.347,626.841 858.89,640.948 826.021,978.571 "/>
<path fill="#431B10" d="M884.169,965.144l5.793-42.284l6.005-42.314l12.054-84.623l12.541-84.552
	c4.146-28.189,8.47-56.354,12.471-84.561l0.365,0.347l-74.419,14.315l0.426-0.467l-7.931,84.432l-8.171,84.408
	c-2.76,28.132-5.362,56.28-8.257,84.399l-8.557,84.371l-0.582-0.51L884.169,965.144L884.169,965.144z M884.328,965.291
	l-58.21,13.747l-0.643,0.152l0.063-0.664l7.875-84.435c2.583-28.152,5.46-56.273,8.176-84.408l8.262-84.399l8.502-84.376
	l0.039-0.396l0.387-0.072l74.499-13.889l0.428-0.081l-0.064,0.428c-4.178,28.186-8.038,56.416-12.073,84.621l-12.004,84.629
	l-12.491,84.559l-6.268,42.275L884.328,965.291L884.328,965.291z"/>
<polygon fill="#703A20" points="648.769,933.6 673.313,598.931 595.42,580.026 571.144,913.674 "/>
<path fill="#431B10" d="M648.68,933.474l2.732-41.75l2.94-41.842l5.892-83.685l12.8-167.293l0.211,0.29l-77.956-18.703l0.607-0.44
	l-5.754,83.434l-6.022,83.418l-6.033,83.418l-6.398,83.39l-0.414-0.576l38.766,10.12L648.68,933.474L648.68,933.474z M648.842,933.7
	l-38.984-9.696l-38.85-9.798l-0.448-0.113l0.032-0.466l5.736-83.438l6.101-83.411l6.112-83.411l6.38-83.391l0.043-0.582l0.562,0.14
	l77.856,19.12l0.227,0.055l-0.016,0.234l-11.757,167.37l-6.386,83.648l-3.201,41.824L648.842,933.7L648.842,933.7z"/>
<polygon fill="#703A20" points="470.084,547.64 399.388,529.702 401.214,865.445 465.716,882.667 "/>
<path fill="#431B10" d="M469.995,547.712l-35.354-8.667l-35.382-8.833l0.653-0.512l0.723,83.934l0.226,83.938l0.17,83.936
	l0.691,83.934l-0.372-0.483l64.565,16.988l-0.96,0.727l2.055-167.522l1.407-83.755l0.716-41.879L469.995,547.712L469.995,547.712z
	 M470.176,547.572l-0.229,41.956l-0.374,41.883l-0.777,83.766l-2.313,167.519l-0.013,0.985l-0.947-0.258l-64.431-17.492
	l-0.372-0.102v-0.383l-0.224-83.936l-0.747-83.934l-0.689-83.934l-0.193-83.936l-0.002-0.682l0.655,0.17l35.314,9.105
	L470.176,547.572L470.176,547.572z"/>
<polygon fill="#E5A62D" points="510.741,562.392 498.335,616.762 521.16,634.736 505.155,657.561 543.001,668.303 537.272,638.048 
	564.019,637.457 579.612,582.586 "/>
<path fill="#AB512D" d="M510.813,562.499l-2.82,13.557l-2.92,13.635c-1.939,9.091-3.98,18.16-6.006,27.231l-0.267-0.755
	l11.443,8.949l11.381,9.03l0.557,0.44l-0.408,0.566l-16.27,22.632l-0.224-0.634l18.883,5.496l18.932,5.328l-0.414,0.378
	l-6.001-30.193l-0.141-0.709l0.734-0.023l26.743-0.809l-0.784,0.607l7.68-27.47l7.834-27.423l0.614,1.112
	c-5.741-1.676-11.45-3.461-17.177-5.185l-17.167-5.217l-17.167-5.217L510.813,562.499z M510.68,562.274l17.396,4.766l17.265,4.882
	l17.265,4.882c5.75,1.64,11.52,3.222,17.256,4.912l0.858,0.252l-0.243,0.859l-7.745,27.45l-7.9,27.405l-0.174,0.598l-0.611,0.009
	l-26.752,0.376l0.593-0.73l5.435,30.3l0.095,0.523l-0.508-0.145l-18.907-5.416l-18.953-5.247l-0.553-0.154l0.329-0.48l15.733-23.01
	l0.149,1.008l-11.449-8.942l-11.386-9.023l-0.374-0.297l0.107-0.46c2.109-9.053,4.205-18.108,6.404-27.14l3.283-13.552
	L510.68,562.274L510.68,562.274z"/>
<polygon fill="#703A20" points="255.38,421.016 259.82,491.802 827.489,652.96 1161.926,584.322 1166.938,544.865 1108.039,522.004 
	804.377,568.711 "/>
<path fill="#431B10" d="M255.487,421.141l4.665,70.634l-0.234-0.292l283.951,80.158l283.736,80.882l-0.217-0.007l167.213-34.179
	l167.143-34.511l-0.403,0.433l5.005-39.468l0.36,0.607l-58.974-22.761l0.344,0.038l-303.572,46.883l-0.179,0.029l-0.175-0.047
	l-137.255-36.892l-137.199-37.096l-274.212-74.412H255.487z M255.292,420.903l274.767,73.28l137.292,36.75l137.239,36.954
	l-0.353-0.02l303.626-46.523l0.181-0.027l0.167,0.064l58.903,22.949l0.419,0.163l-0.057,0.444l-5.131,39.45l-0.047,0.362
	l-0.356,0.072L994.72,618.949l-167.155,34.459l-0.109,0.023l-0.107-0.03l-283.915-80.285l-283.701-81.007l-0.222-0.064l-0.013-0.229
	l-4.216-70.912L255.292,420.903z"/>
<path fill="#E5A62D" d="M307.745,406.962c-2.266-11.137-5.412-24.12,3.409-31.442c7.768-6.45,26.061-3.111,30.819,5.938
	c-1.271-16.714,1.749-56.429,24.747-27.79c-21.553-26.83,30.663-62.668,51.871-19.36c6.198-10.441,28.186-8.221,38.327-5.009
	c-0.05,4.216,2.492,9.866,2.555,12.46c7.07-28.443,23.273-32.148,47.186-14.651c-0.902,7.684-0.081,7.884,2.644,13.932
	c4.273-16.372,7.301-33.757,28.327-33.71c14.467,0.034,42.726,11.68,37.905,28.579c18.551-26.182,80.515-21.247,77.971,15.559
	c12.433-31.345,37.262-49.962,70.385-26.071c-1.182,10.192,4.76,18.466,8.944,27.931c-4.565-45.048,106.001-36.238,83.443,21.705
	c17.541-1.189,46.235-20.824,58.221-4.673c12.739,17.165-8.79,40.302,6.61,57.727c8.846-3.953,29.065-17.976,37.529-17.125
	c17.015,1.717,11.619,24.188,27.758,24.845c15.122,0.619,22.391-21.051,41.604-16.918c17.238,3.702,23.561,21.574,20.309,37.755
	c13.776-2.227,24.288-14.748,38.9-3.049c10.188,8.16,16.005,31.809,12.41,43.8c24.931-18.549,64.993,5.154,36.945,31.691
	c19.788,17.818-19.852,30.905-31.922,33.232c-11.823,2.27-25.13,3.144-36.646-1.013c-6.746-2.438-29.138-19.14-33.25-17.561
	c-12.768,4.886-11.807,1.606-21.358,11.798c-5.611,6.003-6.744,13.831-17.224,11.88c-19.018-3.566-5.535-17.813-22.221-2.879
	c-8.751,7.807-10.367,14.655-24.79,11.006c-16.243-4.1-12.849-15.226-29.489-9.254c-10.512,3.767-6.508,10.441-21.599,6.45
	c-28.805-7.619-10.761,1.488-32.228,10.528c-9.642,4.048-16.408,0.032-18.941-10.058c-3.555-2.703-6.183-5.081-10.516-5.176
	c10.806,19.177-11.608,26.95-27.171,23.825c-20.849-4.193-35.597-13.617-41.034-35.993c-11.694,38.847-68.477,7.05-60.722-23.275
	c-17.668,2.102-66.506,16.991-63.312-16.424c-16.873,11.767-19.553,18.853-41.365,12.084c-21.99-6.833-15.298-14.607-25.908-31.182
	c-7.478,16.404-24.007,19.582-39.613,15.119c-20.797-5.947-17.061-14.841-23.402-31.011c-9.947,35.481-73.119,19.473-58.629-12.553
	c-15.41,25.092-73.824,14.356-74.437-19.104c-17.559,14.454-43.333,31.587-65.729,17.416c-15.217-9.637-15.038-26.052-7.594-40.682
	C270.011,421.243,303.559,386.369,307.745,406.962L307.745,406.962z"/>
<path fill="#AB512D" d="M307.655,406.98c-1.131-5.535-2.428-11.094-2.497-16.794c-0.018-2.832,0.295-5.716,1.318-8.393
	c1.006-2.676,2.782-5.061,5.057-6.798c2.333-1.719,5.176-2.544,7.997-2.872c2.839-0.32,5.718-0.156,8.514,0.396
	c2.796,0.555,5.528,1.493,8.022,2.902c2.474,1.407,4.766,3.335,6.142,5.913l-0.508,0.147c-0.374-4.997-0.342-10.015,0.02-15.009
	c0.397-4.984,1.071-9.995,2.714-14.777c0.852-2.36,1.939-4.739,3.828-6.558c0.938-0.893,2.132-1.59,3.446-1.828
	c1.312-0.254,2.662-0.052,3.881,0.372c2.453,0.879,4.497,2.476,6.357,4.166c1.855,1.717,3.529,3.602,5.106,5.555l-0.666,0.535
	c-2.496-3.092-4.356-6.79-4.97-10.768c-0.648-3.967-0.027-8.092,1.55-11.757c3.19-7.379,9.696-12.979,17.108-15.806
	c7.415-2.884,16.112-2.664,23.211,1.106c7.163,3.7,12.321,10.303,15.776,17.365l-0.922-0.038c1.84-3.126,5.065-5.09,8.334-6.198
	c3.308-1.13,6.774-1.584,10.213-1.722c3.446-0.131,6.892,0.072,10.303,0.505c3.41,0.446,6.794,1.105,10.101,2.132l0.397,0.122v0.424
	c-0.002,2.021,0.517,4.08,1.063,6.108l0.868,3.068c0.274,1.042,0.568,2.077,0.635,3.262l-1.144-0.125
	c1.301-5.195,3.026-10.358,5.813-15.027c1.398-2.32,3.088-4.508,5.176-6.3c2.07-1.803,4.572-3.156,7.254-3.829
	c5.428-1.371,11.046-0.063,15.985,1.989c4.991,2.095,9.571,4.979,13.905,8.131l0.301,0.218l-0.039,0.379
	c-0.249,2.379-0.564,4.807-0.118,7.023c0.485,2.195,1.767,4.331,2.723,6.561l-1.244,0.106c1.067-4.1,2.044-8.244,3.307-12.337
	c1.271-4.075,2.805-8.151,5.22-11.789c2.368-3.643,5.836-6.697,9.941-8.305c4.096-1.633,8.525-2.021,12.84-1.733
	c4.318,0.34,8.531,1.323,12.609,2.666c4.076,1.355,8.029,3.104,11.721,5.346c3.661,2.254,7.143,5.002,9.658,8.647
	c1.242,1.819,2.2,3.881,2.628,6.089c0.44,2.204,0.306,4.517-0.312,6.66l-1.364-0.653c5.04-7.1,12.859-11.635,20.948-14.163
	c8.155-2.533,16.825-3.226,25.284-2.204c8.407,1.056,16.871,3.838,23.517,9.41c3.294,2.771,6.012,6.302,7.664,10.315
	c1.67,4.01,2.231,8.416,1.923,12.698l-1.423-0.324c2.816-7.038,6.357-13.837,10.99-19.899c4.619-6.019,10.426-11.374,17.487-14.496
	c7.018-3.194,15.126-3.711,22.548-1.869c7.467,1.79,14.283,5.517,20.425,9.941l0.31,0.224l-0.047,0.374
	c-0.602,4.814,0.603,9.669,2.505,14.17c1.891,4.531,4.347,8.858,6.361,13.438l-1.173,0.31c-0.294-2.879-0.131-5.831,0.616-8.654
	c0.734-2.821,2.084-5.483,3.878-7.771c3.611-4.614,8.788-7.664,14.154-9.617c5.408-1.957,11.121-2.895,16.827-3.137
	c5.713-0.227,11.449,0.26,17.043,1.425c5.589,1.178,11.057,3.038,16.107,5.756c5.032,2.71,9.671,6.33,13.11,10.972
	c3.459,4.61,5.514,10.274,5.79,16.03c0.315,5.768-0.96,11.499-3.036,16.809l-0.466-0.634c5-0.385,9.884-1.916,14.701-3.464
	c4.823-1.579,9.61-3.316,14.501-4.773c4.884-1.43,9.905-2.689,15.079-2.725c2.573,0,5.195,0.337,7.621,1.319
	c2.428,0.96,4.594,2.582,6.212,4.621c3.31,4.041,4.784,9.327,4.751,14.451c0.023,5.156-1.037,10.186-1.951,15.176
	c-0.917,4.982-1.805,10.022-1.439,15.054c0.306,5.02,2.257,9.9,5.63,13.642l-0.376-0.081c6.558-3.122,12.745-7.093,19.215-10.502
	c3.228-1.722,6.5-3.384,9.916-4.739c1.71-0.673,3.457-1.269,5.278-1.636c0.911-0.174,1.842-0.292,2.787-0.261
	c0.949,0.057,1.844,0.197,2.76,0.41c3.672,0.789,6.826,3.28,8.822,6.38c2.071,3.077,3.375,6.534,5.072,9.741
	c1.642,3.188,3.939,6.264,7.351,7.503c3.357,1.237,7.181,1.044,10.51-0.256c3.373-1.296,6.316-3.505,9.166-5.761
	c2.855-2.265,5.65-4.655,8.77-6.624c3.097-1.973,6.593-3.489,10.305-3.885c3.709-0.437,7.446,0.229,10.92,1.484
	c3.475,1.275,6.678,3.321,9.259,5.985c2.592,2.653,4.57,5.868,5.929,9.302c2.705,6.901,3.076,14.565,1.643,21.782l-0.435-0.451
	c7.281-1.155,13.638-5.355,20.899-7.274c3.615-0.952,7.576-1.053,11.168,0.211c3.573,1.259,6.774,3.396,9.372,6.139
	c2.556,2.777,4.463,6.047,6.031,9.427c1.552,3.394,2.75,6.939,3.647,10.555c0.892,3.618,1.491,7.311,1.701,11.04
	c0.188,3.718,0.05,7.512-1.006,11.16l-0.716-0.503c5.369-4.03,11.973-6.357,18.674-6.674c6.683-0.32,13.538,1.234,19.224,4.886
	c2.822,1.83,5.337,4.229,7.066,7.17c1.745,2.923,2.583,6.407,2.304,9.811c-0.254,3.414-1.522,6.665-3.271,9.533
	c-1.753,2.884-3.982,5.43-6.398,7.734l-0.011-0.809c1.409,1.273,2.725,2.684,3.768,4.318c1.038,1.624,1.785,3.523,1.86,5.519
	c0.091,1.994-0.521,3.967-1.499,5.643c-0.981,1.685-2.277,3.133-3.686,4.417c-2.836,2.562-6.092,4.531-9.435,6.257
	c-3.351,1.715-6.826,3.163-10.357,4.434c-3.534,1.264-7.123,2.363-10.788,3.23c-3.684,0.827-7.378,1.405-11.116,1.833
	c-7.451,0.816-15.092,0.836-22.491-0.82c-1.849-0.421-3.659-0.936-5.464-1.584c-1.826-0.704-3.453-1.645-5.088-2.573
	c-3.249-1.885-6.402-3.883-9.574-5.852c-3.169-1.968-6.336-3.931-9.571-5.745c-1.617-0.899-3.253-1.771-4.925-2.488
	c-0.833-0.351-1.686-0.675-2.503-0.834c-0.396-0.077-0.818-0.102-1.029-0.025l-1.285,0.48c-1.763,0.65-3.552,1.246-5.353,1.783
	c-1.794,0.551-3.623,0.988-5.26,1.665c-3.253,1.364-5.793,4.207-8.373,6.839c-2.653,2.567-4.381,5.781-6.76,8.831
	c-1.199,1.497-2.714,2.922-4.608,3.709c-1.889,0.793-3.956,0.908-5.883,0.691c-3.777-0.523-7.657-1.533-10.736-4.173
	c-1.529-1.294-2.576-3.185-3.314-4.818c-0.184-0.383-0.431-0.716-0.51-0.73c-0.011-0.043-0.283-0.03-0.641,0.141
	c-0.704,0.337-1.454,0.893-2.166,1.448c-2.834,2.309-5.697,4.787-8.287,7.367c-2.632,2.574-4.941,5.611-8.312,7.743
	c-1.679,1.045-3.638,1.69-5.594,1.891c-1.962,0.209-3.908,0.048-5.793-0.26c-3.745-0.646-7.469-1.751-10.817-3.692
	c-1.672-0.96-3.217-2.123-4.66-3.339c-1.448-1.205-2.802-2.472-4.302-3.349c-2.979-1.869-6.749-1.334-10.206-0.304
	c-1.756,0.535-3.487,1.126-5.04,1.978c-1.581,0.845-2.941,1.962-4.289,3.244c-0.682,0.634-1.398,1.305-2.258,1.873
	c-0.856,0.569-1.858,0.979-2.864,1.171c-2.027,0.383-3.987,0.154-5.867-0.161c-1.883-0.319-3.724-0.822-5.516-1.289
	c-1.797-0.465-3.604-0.913-5.41-1.316c-1.806-0.397-3.622-0.766-5.421-0.977c-1.758-0.183-3.692-0.294-4.846,0.559
	c-1.142,0.854-1.83,2.829-2.986,4.381c-1.122,1.611-2.551,3-4.1,4.152c-1.552,1.156-3.217,2.12-4.925,2.954
	c-1.719,0.834-3.446,1.604-5.339,2.129c-1.873,0.51-3.86,0.772-5.854,0.548c-1.989-0.213-3.949-0.977-5.548-2.2
	c-3.24-2.483-4.896-6.284-5.831-9.957l0.304,0.462c-1.602-1.212-3.131-2.476-4.766-3.437c-1.626-0.976-3.401-1.536-5.263-1.565
	l0.747-1.248c1.101,1.975,2.03,4.078,2.542,6.336c0.512,2.245,0.587,4.667-0.072,6.951c-0.632,2.286-1.978,4.329-3.656,5.933
	c-1.686,1.604-3.668,2.825-5.743,3.754c-8.36,3.67-17.971,3.394-26.444,0.87c-8.568-2.213-17.072-5.885-23.64-12.127
	c-6.626-6.18-10.699-14.632-12.755-23.273l1.651,0.043c-1.158,3.842-2.922,7.584-5.562,10.713
	c-2.619,3.135-6.164,5.534-10.076,6.744c-3.912,1.237-8.076,1.38-12.063,0.8c-3.999-0.578-7.859-1.853-11.475-3.581
	c-7.215-3.482-13.602-8.727-18.191-15.346c-2.275-3.314-4.069-7.007-5.023-10.96c-0.963-3.94-1.019-8.149,0.004-12.109l0.949,1.083
	c-6.314,0.834-12.653,2.225-19.041,3.23c-6.386,1.024-12.841,1.86-19.376,1.898c-3.264,0.009-6.55-0.188-9.798-0.815
	c-3.233-0.63-6.477-1.704-9.279-3.654c-2.811-1.921-4.963-4.855-5.969-8.099c-1.042-3.246-1.142-6.654-0.836-9.932l1.389,0.811
	c-3.018,2.1-5.942,4.334-8.887,6.583c-2.954,2.222-5.935,4.529-9.408,6.187c-3.459,1.692-7.435,2.333-11.227,2.059
	c-3.806-0.238-7.481-1.115-11.066-2.152c-3.564-1.056-7.147-2.275-10.5-4.067c-3.349-1.744-6.475-4.408-8.289-7.859
	c-1.833-3.409-2.789-7.009-4.168-10.392c-1.335-3.402-2.975-6.662-4.943-9.735l1.463-0.104c-1.566,3.425-3.693,6.635-6.416,9.288
	c-2.709,2.66-5.999,4.728-9.544,6.056c-7.138,2.68-14.984,2.503-22.228,0.797c-3.634-0.895-7.181-2.027-10.579-3.693
	c-3.366-1.647-6.552-4.1-8.527-7.433c-2.001-3.308-2.891-7-3.863-10.532c-0.943-3.557-1.953-7.066-3.287-10.46l1.357-0.068
	c-1.051,3.743-2.827,7.322-5.344,10.324c-2.503,3.011-5.707,5.407-9.227,7.064c-7.08,3.328-15.169,3.894-22.742,2.512
	c-7.537-1.425-15.008-4.81-20.088-10.833c-2.501-2.995-4.216-6.731-4.583-10.661c-0.394-3.931,0.519-7.877,2.123-11.399l1.047,0.557
	c-2.141,3.484-5.185,6.366-8.647,8.477c-3.464,2.127-7.31,3.545-11.243,4.42c-7.891,1.726-16.121,1.425-23.941-0.388
	c-7.798-1.84-15.362-5.251-21.408-10.638c-3.002-2.693-5.578-5.908-7.363-9.551c-1.797-3.634-2.748-7.68-2.809-11.726l0.763,0.351
	c-5.561,4.563-11.336,8.901-17.494,12.655c-6.155,3.734-12.722,6.937-19.754,8.722c-6.989,1.801-14.558,1.96-21.458-0.419
	c-6.794-2.39-13.178-6.735-16.835-13.099c-1.819-3.156-2.87-6.726-3.174-10.337c-0.313-3.618,0.077-7.265,0.929-10.772
	c0.858-3.512,2.166-6.9,3.788-10.118c0.84-1.656,2.082-2.979,3.237-4.358c1.187-1.355,2.417-2.669,3.675-3.955
	c5.056-5.104,10.46-9.925,16.545-13.792c3.051-1.856,6.321-3.647,9.97-3.987c1.792-0.156,3.749,0.322,5.036,1.667
	c1.3,1.312,1.928,3.101,2.286,4.855L307.655,406.98c-0.362-1.733-0.997-3.486-2.257-4.744c-1.246-1.287-3.119-1.738-4.873-1.579
	c-3.564,0.347-6.812,2.134-9.834,3.996c-6.031,3.876-11.402,8.711-16.415,13.826c-1.248,1.287-2.467,2.601-3.64,3.955
	c-1.139,1.368-2.376,2.716-3.153,4.282c-1.591,3.201-2.872,6.563-3.7,10.034c-1.686,6.887-1.355,14.514,2.288,20.686
	c3.582,6.178,9.87,10.419,16.535,12.725c6.76,2.295,14.154,2.1,21.026,0.306c6.914-1.774,13.404-4.957,19.499-8.676
	c6.099-3.743,11.83-8.069,17.358-12.63l0.747-0.616l0.018,0.967c0.072,3.917,0.997,7.811,2.741,11.316
	c1.733,3.512,4.234,6.622,7.163,9.234c5.893,5.229,13.319,8.561,20.982,10.348c7.68,1.76,15.767,2.028,23.454,0.324
	c3.831-0.863,7.555-2.254,10.881-4.307c3.324-2.043,6.214-4.798,8.242-8.113l1.049,0.557c-1.531,3.387-2.37,7.118-1.993,10.788
	c0.353,3.67,1.955,7.152,4.331,9.982c4.818,5.697,12.052,8.989,19.362,10.34c7.344,1.323,15.174,0.736,21.914-2.46
	c3.355-1.595,6.379-3.872,8.738-6.726c2.372-2.843,4.048-6.234,5.041-9.812l0.571-2.052l0.786,1.984
	c1.371,3.464,2.411,7.045,3.366,10.602c0.978,3.539,1.874,7.114,3.725,10.138c1.819,3.042,4.708,5.272,7.933,6.846
	c3.224,1.577,6.742,2.694,10.255,3.545c7.027,1.64,14.571,1.758,21.3-0.793c3.348-1.266,6.425-3.212,8.967-5.72
	c2.551-2.501,4.558-5.539,6.044-8.81l0.632-1.393l0.831,1.291c2.03,3.153,3.74,6.527,5.115,10.008
	c1.412,3.461,2.402,7.066,4.101,10.183c1.67,3.137,4.42,5.48,7.609,7.145c3.183,1.69,6.645,2.87,10.169,3.901
	c3.512,1.015,7.086,1.864,10.672,2.086c3.582,0.251,7.147-0.328,10.357-1.889c3.224-1.531,6.151-3.774,9.094-5.994
	c2.936-2.236,5.893-4.497,8.948-6.619l1.57-1.092l-0.181,1.903c-0.295,3.122-0.184,6.303,0.755,9.218
	c0.913,2.922,2.78,5.466,5.297,7.199c2.51,1.753,5.523,2.773,8.6,3.371c3.09,0.596,6.273,0.791,9.456,0.784
	c6.377-0.034,12.761-0.852,19.102-1.867c6.359-0.997,12.636-2.377,19.114-3.233l1.273-0.168l-0.324,1.251
	c-0.951,3.672-0.904,7.569-0.004,11.268c0.893,3.706,2.589,7.215,4.762,10.383c4.383,6.334,10.563,11.422,17.505,14.771
	c3.478,1.665,7.181,2.882,10.976,3.434c3.785,0.55,7.687,0.41,11.298-0.736c3.615-1.119,6.851-3.307,9.284-6.209
	c2.449-2.9,4.125-6.423,5.235-10.101l0.917-3.038l0.734,3.083c2.009,8.43,5.927,16.526,12.263,22.441
	c6.28,5.978,14.489,9.553,22.897,11.728c2.1,0.544,4.264,1.042,6.373,1.407c2.12,0.344,4.277,0.485,6.431,0.439
	c4.297-0.106,8.627-0.881,12.525-2.614c3.854-1.692,7.378-4.608,8.471-8.611c1.142-3.989-0.233-8.321-2.315-12.007l-0.713-1.264
	l1.461,0.016c2.138,0.025,4.286,0.714,6.071,1.797c1.805,1.067,3.355,2.36,4.93,3.55l0.233,0.175l0.072,0.286
	c0.875,3.48,2.446,6.927,5.217,9.035c2.748,2.163,6.543,2.361,9.957,1.378c1.71-0.471,3.412-1.219,5.047-2.014
	c1.642-0.804,3.222-1.719,4.664-2.795c1.443-1.074,2.723-2.324,3.736-3.776c0.514-0.727,0.954-1.502,1.423-2.324
	c0.471-0.802,0.997-1.742,1.939-2.44c0.943-0.693,2.073-0.92,3.068-0.979c1.013-0.063,1.985,0.011,2.941,0.115
	c1.908,0.224,3.756,0.605,5.593,1.008c3.674,0.768,7.284,1.939,10.849,2.592c1.785,0.308,3.607,0.489,5.263,0.172
	c1.672-0.286,2.972-1.335,4.327-2.637c1.35-1.289,2.9-2.565,4.622-3.478c1.726-0.942,3.55-1.559,5.36-2.109
	c1.83-0.535,3.727-0.961,5.713-1.004c1.975-0.066,4.066,0.424,5.781,1.466c1.728,1.019,3.11,2.336,4.526,3.509
	c1.409,1.189,2.859,2.277,4.427,3.178c3.126,1.819,6.672,2.877,10.265,3.5c3.566,0.618,7.295,0.499,10.28-1.413
	c2.995-1.869,5.335-4.862,8.01-7.499c1.319-1.346,2.743-2.619,4.137-3.847c1.405-1.237,2.809-2.474,4.307-3.652
	c0.763-0.582,1.507-1.165,2.49-1.64c0.467-0.197,1.198-0.517,2.048-0.104c0.755,0.446,0.952,1.006,1.199,1.429
	c0.798,1.753,1.611,3.201,2.943,4.361c2.623,2.293,6.307,3.323,9.846,3.808c1.765,0.204,3.548,0.091,5.12-0.564
	c1.575-0.652,2.884-1.847,4.014-3.246c2.218-2.814,4.109-6.252,6.86-8.905c1.298-1.355,2.61-2.701,4.037-3.967
	c1.414-1.259,3.022-2.453,4.855-3.196c1.821-0.741,3.641-1.16,5.412-1.703c1.778-0.525,3.532-1.105,5.27-1.742l1.339-0.494
	c0.689-0.201,1.226-0.1,1.742-0.018c1.015,0.204,1.914,0.559,2.798,0.933c1.756,0.759,3.416,1.652,5.056,2.569
	c3.273,1.846,6.447,3.826,9.614,5.804c3.167,1.976,6.312,3.983,9.517,5.852c1.604,0.917,3.222,1.849,4.886,2.49
	c1.706,0.618,3.491,1.133,5.279,1.543c7.197,1.631,14.7,1.642,22.058,0.854c3.679-0.412,7.372-0.983,10.973-1.781
	c3.604-0.841,7.166-1.919,10.661-3.162c3.493-1.246,6.928-2.667,10.226-4.347c3.285-1.685,6.475-3.613,9.195-6.056
	c2.673-2.397,4.986-5.593,4.834-9.159c-0.143-3.559-2.565-6.647-5.238-9.064l-0.442-0.401l0.433-0.41
	c2.37-2.247,4.544-4.721,6.235-7.496c1.694-2.757,2.897-5.849,3.144-9.053c0.269-3.197-0.503-6.447-2.141-9.213
	c-1.624-2.78-4.016-5.082-6.728-6.849c-5.464-3.538-12.131-5.072-18.631-4.767c-6.518,0.295-12.94,2.546-18.169,6.456l-1.106,0.825
	l0.389-1.328c1.017-3.478,1.171-7.197,0.988-10.847c-0.197-3.665-0.782-7.31-1.656-10.878c-0.877-3.568-2.053-7.066-3.575-10.407
	c-1.532-3.323-3.401-6.531-5.865-9.213c-2.476-2.628-5.616-4.732-9.017-5.931c-3.428-1.212-7.186-1.131-10.708-0.213
	c-7.075,1.837-13.49,6.062-20.973,7.247l-0.544,0.088l0.109-0.539c1.42-7.084,1.065-14.617-1.568-21.367
	c-1.321-3.358-3.244-6.493-5.759-9.077c-2.505-2.592-5.609-4.587-8.992-5.834c-3.376-1.228-7.034-1.885-10.609-1.466
	c-3.588,0.376-6.982,1.837-10.034,3.77c-3.072,1.932-5.856,4.298-8.727,6.568c-2.866,2.257-5.856,4.504-9.338,5.838
	c-3.461,1.334-7.415,1.541-10.937,0.234c-1.758-0.659-3.319-1.799-4.565-3.179c-1.25-1.387-2.222-2.981-3.077-4.605
	c-1.713-3.251-3.006-6.694-5.025-9.701c-1.948-3.033-4.954-5.392-8.496-6.149c-3.529-1.042-7.134,0.188-10.487,1.484
	c-3.376,1.35-6.631,3.011-9.845,4.735c-6.454,3.418-12.594,7.385-19.234,10.566l-0.211,0.102l-0.167-0.184
	c-3.471-3.826-5.507-8.887-5.826-14.023c-0.383-5.149,0.51-10.244,1.416-15.235c0.908-4.998,1.941-9.999,1.905-15.04
	c0.016-5.015-1.422-10.077-4.61-13.959c-1.55-1.941-3.593-3.461-5.899-4.368c-2.302-0.931-4.821-1.25-7.319-1.244
	c-5.027,0.045-9.99,1.293-14.836,2.725c-4.853,1.459-9.63,3.201-14.467,4.8c-4.839,1.563-9.748,3.128-14.918,3.543l-0.734,0.057
	l0.269-0.693c2.03-5.226,3.253-10.829,2.934-16.417c-0.283-5.578-2.274-11.024-5.632-15.482c-3.337-4.486-7.863-8.01-12.795-10.652
	c-4.95-2.648-10.332-4.465-15.831-5.614c-10.985-2.207-22.675-2.03-33.252,1.736c-5.226,1.912-10.201,4.884-13.611,9.263
	c-3.462,4.341-4.839,10.063-4.213,15.57l0.455,3.992l-1.627-3.684c-1.991-4.503-4.456-8.822-6.398-13.45
	c-0.967-2.311-1.79-4.71-2.283-7.202c-0.498-2.487-0.635-5.066-0.34-7.6l0.263,0.596c-6.058-4.345-12.745-7.968-19.979-9.685
	c-7.195-1.763-14.938-1.246-21.674,1.831c-6.778,3.013-12.41,8.203-16.914,14.1c-4.517,5.933-7.992,12.632-10.752,19.576
	l-1.753,4.406l0.328-4.73c0.283-4.096-0.261-8.253-1.839-12.02c-1.563-3.772-4.123-7.091-7.263-9.725
	c-6.328-5.294-14.533-8.001-22.72-9.005c-8.235-0.974-16.698-0.281-24.62,2.148c-7.865,2.437-15.382,6.815-20.167,13.536
	l-2.757,3.872l1.391-4.526c1.198-3.894,0.261-8.139-2.087-11.479c-2.318-3.385-5.643-6.046-9.184-8.233
	c-3.568-2.177-7.428-3.897-11.406-5.229c-3.98-1.319-8.103-2.286-12.258-2.623c-4.132-0.286-8.389,0.089-12.209,1.609
	c-3.838,1.498-7.05,4.304-9.318,7.766c-2.304,3.453-3.819,7.413-5.075,11.425c-1.251,4.026-2.236,8.155-3.316,12.27l-0.467,1.783
	l-0.777-1.679l-1.524-3.29c-0.507-1.105-1.013-2.275-1.275-3.548c-0.494-2.564-0.132-5.029,0.115-7.439l0.261,0.598
	c-4.272-3.124-8.778-5.967-13.626-8.015c-4.803-2.01-10.163-3.23-15.199-1.962c-5.059,1.219-9.062,5.082-11.708,9.555
	c-2.701,4.501-4.415,9.567-5.707,14.689l-0.942,3.729l-0.202-3.854c-0.05-0.942-0.319-1.976-0.589-2.986l-0.861-3.07
	c-0.548-2.066-1.094-4.178-1.09-6.425l0.396,0.548c-3.21-1.006-6.549-1.665-9.9-2.109c-3.357-0.435-6.746-0.639-10.118-0.517
	c-3.366,0.125-6.742,0.568-9.905,1.642c-3.137,1.058-6.11,2.893-7.779,5.72l-0.496,0.841l-0.426-0.877
	c-3.378-6.943-8.396-13.361-15.294-16.938c-6.833-3.647-15.208-3.887-22.414-1.105c-7.197,2.723-13.534,8.169-16.614,15.269
	c-1.525,3.529-2.125,7.471-1.513,11.266c0.58,3.804,2.352,7.363,4.767,10.369l-0.666,0.535c-1.556-1.932-3.192-3.803-4.997-5.487
	c-1.805-1.663-3.788-3.208-6.056-4.032c-1.128-0.399-2.333-0.577-3.486-0.362c-1.153,0.204-2.211,0.806-3.081,1.624
	c-1.747,1.658-2.834,3.949-3.672,6.25c-1.635,4.669-2.335,9.644-2.755,14.591c-0.387,4.961-0.444,9.957-0.1,14.918l0.089,1.282
	l-0.598-1.135c-1.294-2.456-3.496-4.347-5.91-5.734c-2.429-1.389-5.115-2.331-7.866-2.889c-2.752-0.559-5.591-0.736-8.382-0.435
	c-2.773,0.308-5.566,1.108-7.823,2.755c-2.234,1.688-3.982,4.003-4.982,6.624c-1.019,2.623-1.344,5.469-1.343,8.28
	c0.038,5.657,1.3,11.22,2.402,16.76l-0.17,0.039L307.655,406.98z"/>
<ellipse transform="matrix(0.2731 -0.962 0.962 0.2731 -138.8969 599.7731)" fill="#E5A62D" stroke="#AB512D" cx="327.422" cy="391.795" rx="29.275" ry="38.181"/>
<path fill="#FDB913" stroke="#AB512D" d="M511.26,359.306c-4.8,16.898-21.297,27.022-36.841,22.609
	c-15.545-4.415-24.263-21.696-19.465-38.596c4.801-16.914,21.302-27.038,36.847-22.623
	C507.345,325.109,516.06,342.39,511.26,359.306L511.26,359.306z"/>
<path fill="#FDB913" d="M650.058,355.063c-4.605,16.223-24.238,24.863-43.849,19.295c-19.607-5.568-31.766-23.236-27.16-39.457
	c4.608-16.229,24.236-24.872,43.843-19.304C642.505,321.163,654.666,338.833,650.058,355.063z"/>
<path fill="#AB512D" d="M650.148,355.081c-2.34,8.654-9.363,15.548-17.65,18.925c-8.337,3.477-17.876,3.611-26.494,1.058
	c-8.611-2.56-16.395-7.84-21.768-14.972c-2.644-3.588-4.703-7.646-5.75-12.002c-1.028-4.35-1.088-8.966,0.1-13.341
	c1.151-4.345,3.466-8.432,6.645-11.667c3.163-3.26,7.075-5.754,11.287-7.406c8.452-3.335,17.972-3.503,26.646-0.969
	c8.652,2.438,16.689,7.628,21.94,14.977C650.368,336.931,652.722,346.488,650.148,355.081L650.148,355.081z M649.976,355.033
	c1.156-4.254,1.208-8.799,0.106-13.049c-1.103-4.252-3.194-8.196-5.919-11.586c-5.476-6.799-13.178-11.549-21.522-13.917
	c-8.31-2.311-17.407-2.293-25.515,0.768c-4.032,1.536-7.804,3.811-10.888,6.835c-3.076,3.024-5.455,6.769-6.713,10.947
	c-1.242,4.141-1.429,8.656-0.426,12.918c0.963,4.272,2.936,8.31,5.632,11.769c5.355,7.012,13.309,11.674,21.692,13.923
	c8.368,2.286,17.442,2.236,25.669-0.682c4.1-1.463,7.952-3.72,11.126-6.76C646.39,363.16,648.728,359.263,649.976,355.033
	L649.976,355.033z"/>
<path fill="#E5A62D" stroke="#AB512D" d="M581.133,532.584c-4.033,14.206-19.909,22.135-35.458,17.718
	c-15.543-4.411-24.884-19.503-20.851-33.705c4.032-14.2,19.908-22.124,35.452-17.715
	C575.824,503.297,585.163,518.384,581.133,532.584L581.133,532.584z"/>
<path fill="#E5A62D" d="M854.97,583.893c-2.879,10.138-16.173,15.251-29.7,11.409c-13.516-3.835-22.145-15.174-19.267-25.314
	c2.882-10.147,16.178-15.253,29.693-11.415C849.225,562.413,857.852,573.742,854.97,583.893L854.97,583.893z"/>
<path fill="#AB512D" d="M855.041,583.911c-0.797,2.839-2.469,5.405-4.624,7.44c-2.166,2.039-4.83,3.536-7.651,4.531
	c-5.677,2.041-11.995,1.828-17.711,0.123c-5.729-1.756-10.933-5.09-14.811-9.581c-1.898-2.272-3.486-4.841-4.393-7.689
	c-0.872-2.85-1.112-5.935-0.326-8.912c0.747-2.904,2.426-5.639,4.692-7.673c2.261-2.052,5-3.525,7.882-4.442
	c5.79-1.858,12.061-1.722,17.861-0.027c5.736,1.633,11.193,4.861,14.956,9.567c1.871,2.34,3.35,5.013,4.119,7.891
	C855.795,578.012,855.863,581.071,855.041,583.911L855.041,583.911z M854.87,583.857c0.781-2.811,0.639-5.842-0.31-8.57
	c-0.954-2.734-2.565-5.19-4.533-7.265c-3.965-4.157-9.102-6.991-14.605-8.572c-5.451-1.481-11.379-1.753-16.821-0.132
	c-2.705,0.818-5.29,2.086-7.446,3.901c-2.136,1.828-3.837,4.16-4.698,6.905c-0.82,2.675-0.847,5.679-0.005,8.429
	c0.818,2.762,2.317,5.324,4.259,7.467c3.847,4.372,9.234,7.107,14.748,8.559c5.535,1.47,11.416,1.667,16.972,0.229
	c2.764-0.741,5.426-1.984,7.678-3.81C852.352,589.172,854.062,586.669,854.87,583.857L854.87,583.857z"/>
<path fill="#E5A62D" d="M970.656,567.78c-3.84,13.532-17.371,21.535-30.218,17.886c-12.849-3.647-20.149-17.564-16.307-31.093
	c3.835-13.515,17.36-21.51,30.205-17.865C967.182,540.357,974.49,554.269,970.656,567.78L970.656,567.78z"/>
<path fill="#AB512D" d="M970.745,567.798c-1.783,6.239-5.654,12.016-11.246,15.666c-2.766,1.851-5.967,3.06-9.277,3.598
	c-3.319,0.559-6.755,0.236-9.968-0.687c-3.208-0.974-6.185-2.657-8.67-4.855c-2.481-2.207-4.488-4.896-5.965-7.832
	c-2.916-5.899-3.638-12.822-1.962-19.234c1.611-6.416,5.747-12.27,11.484-15.799c2.848-1.774,6.06-2.995,9.401-3.512
	c3.341-0.533,6.798-0.256,10.04,0.67c6.545,1.792,12.086,6.669,14.836,12.734C972.22,554.597,972.58,561.55,970.745,567.798
	L970.745,567.798z M970.575,567.745c0.825-3.126,1.137-6.4,0.745-9.599c-0.397-3.194-1.4-6.294-2.952-9.064
	c-3.072-5.557-8.255-9.82-14.288-11.493c-6.019-1.692-12.677-0.739-18.062,2.505c-5.408,3.213-9.528,8.527-11.416,14.628
	c-1.903,6.08-1.455,12.995,1.57,18.687c2.909,5.752,8.395,9.993,14.487,11.542c6.087,1.67,12.729,0.684,18.257-2.444
	C964.461,579.41,968.846,574.018,970.575,567.745L970.575,567.745z"/>
<path fill="#E5A62D" d="M1066.864,555.374c-3.842,13.531-19.566,20.91-35.107,16.499c-15.545-4.411-25.044-18.955-21.202-32.486
	c3.836-13.515,19.56-20.89,35.102-16.479C1061.199,527.323,1070.7,541.859,1066.864,555.374z"/>
<path fill="#AB512D" d="M1066.864,555.41c-1.894,6.984-7.265,12.797-13.896,15.849c-6.651,3.129-14.487,3.427-21.495,1.339
	c-7.034-2.104-13.246-6.617-17.387-12.568c-2.034-2.995-3.584-6.343-4.323-9.906c-0.721-3.555-0.72-7.297,0.231-10.845
	c1.779-7.181,7.394-13.114,14.168-15.999c6.773-2.99,14.589-3.319,21.657-1.253c7.079,1.984,13.552,6.418,17.568,12.578
	C1067.424,540.698,1068.946,548.469,1066.864,555.41L1066.864,555.41z M1066.693,555.358c0.929-3.446,1.036-7.113,0.238-10.573
	c-0.798-3.461-2.388-6.701-4.51-9.499c-4.252-5.611-10.403-9.583-17.109-11.481c-6.708-1.842-14.044-1.672-20.488,1.024
	c-6.413,2.639-11.841,7.945-13.889,14.719c-2.136,6.733-0.555,14.424,3.657,20.126c4.121,5.826,10.534,9.721,17.285,11.497
	c6.765,1.821,14.084,1.615,20.647-0.943c3.273-1.28,6.32-3.21,8.821-5.736C1063.847,561.96,1065.673,558.784,1066.693,555.358
	L1066.693,555.358z"/>
<path fill="#E5A62D" stroke="#AB512D" d="M557.592,466.381c-3.453,12.163-22.7,17.362-42.982,11.604
	c-20.275-5.757-33.925-20.298-30.472-32.461c3.455-12.174,22.709-17.371,42.986-11.612
	C547.405,439.67,561.049,454.207,557.592,466.381L557.592,466.381z"/>
<path fill="#E5A62D" stroke="#AB512D" d="M745.657,447.01c-4.417,15.556-20.058,24.745-34.933,20.523
	c-14.872-4.221-23.348-20.26-18.934-35.816c4.413-15.548,20.056-24.732,34.924-20.511
	C741.59,415.429,750.072,431.464,745.657,447.01L745.657,447.01z"/>
<path fill="#E5A62D" d="M923.339,501.434c-4.995,17.586-22.19,28.094-38.415,23.492c-16.223-4.606-25.334-22.586-20.343-40.173
	c4.995-17.586,22.195-28.098,38.419-23.493C919.227,465.865,928.332,483.848,923.339,501.434L923.339,501.434z"/>
<path fill="#AB512D" d="M923.429,501.452c-2.229,8.029-7.199,15.403-14.24,20.178c-3.498,2.402-7.548,4.023-11.758,4.76
	c-4.221,0.759-8.597,0.424-12.718-0.761c-4.08-1.219-7.882-3.396-11.019-6.239c-3.138-2.852-5.648-6.337-7.456-10.131
	c-3.588-7.625-4.311-16.477-2.123-24.654c2.109-8.16,7.263-15.657,14.474-20.296c3.584-2.329,7.643-3.964,11.885-4.681
	c4.247-0.734,8.638-0.448,12.793,0.741c4.103,1.185,8.018,3.265,11.198,6.146c3.19,2.866,5.763,6.391,7.476,10.278
	C925.411,484.563,925.769,493.448,923.429,501.452L923.429,501.452z M923.257,501.403c1.078-4.01,1.518-8.206,1.105-12.329
	c-0.419-4.116-1.591-8.14-3.48-11.773c-3.734-7.279-10.308-12.995-18.141-15.165c-7.757-2.206-16.397-0.77-23.243,3.589
	c-6.894,4.322-12.047,11.28-14.44,19.156c-2.41,7.834-1.962,16.694,1.742,24.107c3.57,7.473,10.453,13.176,18.341,15.219
	c7.834,2.188,16.454,0.718,23.447-3.527c3.514-2.107,6.626-4.916,9.145-8.201C920.248,509.187,922.072,505.383,923.257,501.403
	L923.257,501.403z"/>
<path fill="#E5A62D" d="M752.872,580.026c-3.84,13.527-19.007,21.068-33.888,16.841c-14.875-4.221-23.817-18.611-19.977-32.135
	c3.842-13.529,19.009-21.066,33.884-16.841C747.77,552.114,756.712,566.499,752.872,580.026z"/>
<path fill="#AB512D" d="M752.961,580.062c-1.892,6.774-6.815,12.641-13.226,15.829c-6.389,3.276-14.091,3.758-20.95,1.699
	c-6.887-2.057-12.881-6.642-16.723-12.587c-1.889-2.99-3.278-6.311-3.908-9.807c-0.609-3.489-0.546-7.127,0.383-10.588
	c1.735-6.982,6.96-12.929,13.495-15.976c6.52-3.144,14.19-3.659,21.127-1.617c6.914,1.933,13.196,6.452,16.896,12.607
	C753.79,565.721,754.984,573.303,752.961,580.062L752.961,580.062z M752.79,580.01c0.904-3.364,1.074-6.932,0.385-10.331
	c-0.691-3.398-2.123-6.613-4.103-9.41c-3.967-5.611-9.882-9.63-16.436-11.481c-6.517-1.801-13.703-1.466-19.888,1.371
	c-6.176,2.784-11.261,8.115-13.266,14.719c-2.086,6.563-0.818,14.071,3.101,19.788c3.828,5.82,10.025,9.777,16.61,11.501
	c6.595,1.783,13.749,1.413,20.067-1.291c3.153-1.348,6.06-3.328,8.436-5.858C750.079,586.49,751.832,583.37,752.79,580.01
	L752.79,580.01z"/>
<path fill="#E5A62D" stroke="#AB512D" d="M1132.924,574.154c-3.84,13.533-19.011,21.068-33.884,16.844
	c-14.877-4.221-23.823-18.606-19.981-32.137c3.838-13.516,19.005-21.05,33.884-16.823
	C1127.814,546.256,1136.764,560.639,1132.924,574.154L1132.924,574.154z"/>
<path fill="#E5A62D" stroke="#AB512D" d="M800.689,532.745c-2.306,8.124-20.618,10.025-40.896,4.268
	c-20.278-5.756-34.862-16.998-32.556-25.121c2.306-8.119,20.62-10.02,40.896-4.263C788.415,513.389,802.993,524.628,800.689,532.745
	z"/>
<path fill="#E5A62D" d="M851.891,417.65c-3.453,12.168-13.93,19.857-23.391,17.172c-9.46-2.687-14.331-14.732-10.878-26.9
	c3.457-12.165,13.93-19.85,23.388-17.165C850.469,393.442,855.348,405.489,851.891,417.65L851.891,417.65z"/>
<path fill="#AB512D" d="M851.962,417.668c-1.495,5.118-4.066,10.086-8.171,13.776c-2.032,1.831-4.46,3.33-7.166,4.093
	c-2.691,0.795-5.634,0.773-8.337-0.009c-2.7-0.833-5.084-2.49-6.889-4.569c-1.806-2.089-3.068-4.563-3.922-7.129
	c-1.649-5.177-1.67-10.775-0.34-16.046c1.323-5.26,4.121-10.287,8.378-13.885c2.116-1.789,4.583-3.233,7.308-4.016
	c2.712-0.793,5.684-0.84,8.434-0.056c2.739,0.813,5.238,2.41,7.089,4.531c1.864,2.116,3.181,4.639,3.93,7.281
	C853.811,406.948,853.403,412.525,851.962,417.668L851.962,417.668z M851.792,417.616c1.459-5.129,1.268-10.731-0.634-15.597
	c-1.839-4.843-5.544-9.039-10.425-10.353c-4.848-1.391-10.197,0.265-14.147,3.532c-4.01,3.255-6.9,7.854-8.509,12.856
	c-1.566,5.002-1.803,10.582-0.014,15.579c1.647,5.004,5.668,9.243,10.63,10.471c4.961,1.344,10.262-0.388,14.385-3.523
	C847.239,427.42,850.355,422.76,851.792,417.616L851.792,417.616z"/>
<path fill="#E5A62D" stroke="#AB512D" d="M620.823,430.092c-2.109,7.435-13.137,10.819-24.639,7.557
	c-11.488-3.264-19.098-11.941-16.989-19.372c2.114-7.444,13.146-10.826,24.636-7.562
	C615.333,413.978,622.938,422.65,620.823,430.092z"/>
<path fill="#E5A62D" d="M830.819,361.401c-4.995,17.584-27.128,26.689-49.438,20.357c-22.308-6.334-36.356-25.712-31.363-43.299
	c4.993-17.578,27.126-26.684,49.432-20.352C821.763,324.441,835.809,343.819,830.819,361.401z"/>
<path fill="#AB512D" d="M830.909,361.419c-1.298,4.787-4.032,9.13-7.591,12.589c-3.545,3.496-7.933,6.099-12.611,7.848
	c-9.408,3.514-19.956,3.425-29.523,0.609c-9.585-2.839-18.337-8.461-24.605-16.187c-3.081-3.885-5.562-8.307-6.88-13.123
	c-1.309-4.798-1.481-9.968-0.15-14.829c1.291-4.859,3.989-9.352,7.648-12.827c3.638-3.512,8.104-6.094,12.845-7.766
	c9.517-3.367,20.047-3.312,29.664-0.519c9.628,2.723,18.619,8.242,24.772,16.186c3.056,3.955,5.421,8.475,6.601,13.316
	C832.287,351.533,832.327,356.664,830.909,361.419L830.909,361.419z M830.737,361.37c1.298-4.742,1.241-9.83-0.14-14.526
	c-1.368-4.705-3.876-9.012-7.034-12.702c-6.355-7.388-15.054-12.507-24.362-15.153c-9.315-2.589-19.426-2.775-28.606,0.333
	c-4.562,1.566-8.88,3.935-12.424,7.209c-3.539,3.256-6.293,7.41-7.68,12.061c-1.386,4.637-1.461,9.683-0.184,14.399
	c1.23,4.732,3.622,9.137,6.753,12.895c6.239,7.605,15.18,12.623,24.528,15.151c9.365,2.565,19.458,2.719,28.75-0.243
	c4.624-1.489,9.021-3.84,12.657-7.127C826.639,370.393,829.355,366.091,830.737,361.37z"/>
<path fill="#E5A62D" d="M955.743,433.906c-3.453,12.167-17.228,18.925-30.74,15.088c-13.529-3.842-21.685-16.823-18.23-28.991
	c3.453-12.167,17.215-18.921,30.742-15.081C951.033,408.754,959.198,421.739,955.743,433.906z"/>
<path fill="#AB512D" d="M955.832,433.941c-1.715,6.132-6.2,11.429-12.025,14.295c-5.808,2.975-12.779,3.35-19.021,1.473
	c-6.205-1.878-11.658-6.021-15.169-11.375c-1.726-2.698-3.013-5.695-3.607-8.855c-0.573-3.158-0.542-6.457,0.295-9.599
	c1.556-6.341,6.345-11.721,12.292-14.444c5.931-2.812,12.899-3.244,19.172-1.393c6.287,1.763,11.984,5.831,15.369,11.399
	C956.573,420.955,957.619,427.819,955.832,433.941z M955.662,433.89c1.796-6.121,0.147-12.838-3.505-17.795
	c-3.636-5.022-8.998-8.602-14.891-10.276c-5.897-1.618-12.36-1.359-17.965,1.151c-5.589,2.462-10.226,7.224-12.052,13.18
	c-1.898,5.924-0.704,12.716,2.886,17.843c3.509,5.235,9.12,8.738,15.09,10.303c5.927,1.597,12.385,1.271,18.116-1.078
	c2.859-1.187,5.507-2.947,7.677-5.211C953.194,439.744,954.796,436.928,955.662,433.89L955.662,433.89z"/>
<path fill="#431B10" d="M886.997,702.604l-13.962,49.18c0.833-2.941,52.227,11.662,57.073,12.995
	c18.76,5.154,38.92,4.134,57.27-2.191c11.753-4.044,29.029-18.728,42.361-15.384c4.945-0.933,12.559-53.269,6.778-57.139
	c-11.474-7.686-31.215,9.059-39.767,14.907c-14.868,10.201-31.791,18.665-50.284,18.373
	C939.233,723.228,888.232,700.824,886.997,702.604L886.997,702.604z"/>
<ellipse transform="matrix(0.2731 -0.962 0.962 0.2731 -188.3343 956.064)" cx="538.462" cy="602.653" rx="14.791" ry="15.271"/>
<g>
	<polygon fill="#FFFFFF" points="415.715,356.692 395.574,407.965 383.275,463.427 403.469,410.579 	"/>
	<polygon fill="#FFFFFF" points="359.179,397.098 400.623,414.195 445.862,423.325 403.111,406.282 	"/>
</g>
<g>
	<polygon fill="#FFFFFF" points="675.855,347.669 655.715,398.942 643.434,454.404 663.61,401.538 	"/>
	<polygon fill="#FFFFFF" points="619.319,388.075 660.764,405.172 705.985,414.302 663.252,397.259 	"/>
</g>
<g>
	<polygon fill="#FFFFFF" points="886.997,318.757 866.857,370.03 854.576,425.474 874.752,372.625 	"/>
	<polygon fill="#FFFFFF" points="830.461,359.163 871.906,376.26 917.145,385.39 874.394,368.329 	"/>
</g>
<g>
	<polygon fill="#FFFFFF" points="835.563,504.119 815.423,555.392 803.142,610.854 823.318,557.988 	"/>
	<polygon fill="#FFFFFF" points="779.045,544.525 820.472,561.622 865.711,570.752 822.978,553.709 	"/>
</g>
<g>
	<polygon fill="#FFFFFF" points="1094.791,478.214 1074.561,529.487 1062.388,584.931 1082.618,532.083 	"/>
	<polygon fill="#FFFFFF" points="1038.22,518.62 1079.753,535.717 1124.868,544.847 1082.26,527.804 	"/>
</g>
</svg>
